# xmcd CD database file
#
# Track frame offsets:
#	150
#	17521
#	35022
#	55944
#	77647
#	97466
#	120548
#	138665
#	154877
#	174789
#
# Disc length: 2663 seconds
#
# Revision: 0
# Processed by: cddbd v1.5PL3 Copyright (c) Steve Scherf et al.
# Submitted via: CDex 1.51
#
DISCID=800a650a
DTITLE=椎名へきる - Wings of Time
DYEAR=2004
DGENRE=Rock
TTITLE0=Jumping Slash
TTITLE1=電撃ジャップ
TTITLE2=青い人魚
TTITLE3=Color
TTITLE4=レヴェランス
TTITLE5=Little by little
TTITLE6=Always
TTITLE7=Wings of Time
TTITLE8=スタンバイ!
TTITLE9=PROUD OF YOU
EXTD=YEAR: 2004
EXTT0=
EXTT1=
EXTT2=
EXTT3=
EXTT4=
EXTT5=
EXTT6=
EXTT7=
EXTT8=
EXTT9=
PLAYORDER=
